:SAMPLES-PER-SECOND 24
:FULLY-SPECIFIED
:DEGREES
126
root  13.6418 39.9095 30.1404 5.13745 -4.12689 -6.08459
RightUpLeg  -18.8417 -9.98375 -3.06255
RightLeg  26.5089 -10.0018 -5.60165
RightFoot  -2.17866 -0.629282 7.64738
RightToes  -2.08645e-008 3.77894e-005 6.81332e-007
Spine  1.80277 -2.7778 -11.8031
Spine1  5.77752 -5.84636 13.0139
HEad  -23.2176 14.6344 -0.979957
LeftShoulder1  7.30362 -13.1102 -37.8597
LeftArm  8.3426 11.8713 -32.5532
LeftForeArm  66.2064 -78.4031 -55.6245
LeftHand  -0.700132 -3.26782 9.62618
RightShoulder  4.20246 6.906 34.4761
RightArm  -4.1321 -27.7394 35.4641
RightForeArm  34.1002 60.8297 17.0663
RightHand  -0.933239 6.71342 -9.26516
LeftUpLeg  -11.7862 3.61153 4.39391
LeftLeg  13.6166 18.7504 5.19942
LeftFoot  -5.16232 0.164117 -2.46831
LeftToes  1.24767e-006 1.47042e-008 1.32732e-009
127
root  13.9163 39.8882 29.102 6.37402 -9.23114 -5.38089
RightUpLeg  -17.4835 -10.3544 -3.89788
RightLeg  31.4249 -11.0016 -7.39997
RightFoot  -3.13833 -0.531077 7.09807
RightToes  -2.08645e-008 3.77894e-005 6.81332e-007
Spine  -0.0816833 -2.40237 -11.785
Spine1  6.2937 -5.163 12.1466
HEad  -24.1079 16.5654 -3.23207
LeftShoulder1  7.32591 -13.1472 -37.8942
LeftArm  8.97493 10.5689 -34.1611
LeftForeArm  69.2263 -78.721 -57.7024
LeftHand  -0.725582 -3.07684 10.1791
RightShoulder  4.14565 6.85801 34.1186
RightArm  -3.75157 -26.9189 34.6005
RightForeArm  33.8636 60.7512 17.0294
RightHand  -0.92475 6.70751 -9.18799
LeftUpLeg  -13.4727 3.97699 3.55368
LeftLeg  12.7308 23.4288 5.36406
LeftFoot  -3.53399 0.136726 -1.69315
LeftToes  1.24767e-006 1.47042e-008 1.32732e-009
128
root  14.1467 39.8897 28.0767 7.05957 -14.6942 -4.78204
RightUpLeg  -14.4733 -10.2098 -5.39757
RightLeg  33.7135 -12.3795 -8.98143
RightFoot  -4.60819 -0.449286 7.08448
RightToes  -2.08645e-008 3.77894e-005 6.81332e-007
Spine  -1.29573 -1.83819 -10.577
Spine1  6.15979 -4.09403 10.3032
HEad  -24.3024 18.5879 -5.40227
LeftShoulder1  7.35829 -13.1777 -38.0038
LeftArm  8.1704 11.9915 -34.9688
LeftForeArm  77.1657 -79.5122 -65.5944
LeftHand  -0.699268 -2.79746 10.135
RightShoulder  4.13967 6.86201 34.0459
RightArm  -3.46678 -25.6412 34.037
RightForeArm  34.108 60.4368 16.7498
RightHand  -0.962857 6.98506 -9.34943
LeftUpLeg  -14.3258 4.41983 3.31711
LeftLeg  11.2987 28.3638 4.84831
LeftFoot  -1.67566 0.0634155 -0.637423
LeftToes  1.24767e-006 1.47042e-008 1.32732e-009
129
root  14.3406 39.9564 27.0617 7.28149 -20.4601 -4.50845
RightUpLeg  -10.3942 -9.52722 -7.18121
RightLeg  33.6162 -13.4911 -9.70574
RightFoot  -5.04594 -0.375667 6.22238
RightToes  -2.08645e-008 3.77894e-005 6.81332e-007
Spine  -1.62539 -1.0979 -7.79889
Spine1  5.4544 -2.66963 7.24306
HEad  -24.3682 20.7229 -7.24736
LeftShoulder1  7.3012 -13.1197 -37.8214
LeftArm  7.08223 15.6532 -34.7881
LeftForeArm  95.2299 -80.3711 -83.7497
LeftHand  -0.651478 -2.6769 9.59343
RightShoulder  4.13092 6.87884 33.8978
RightArm  -3.01182 -25.0506 34.2881
RightForeArm  34.8591 61.956 17.9207
RightHand  -1.00842 6.81127 -9.90581
LeftUpLeg  -13.8438 4.87507 3.86327
LeftLeg  8.36962 33.5941 3.21783
LeftFoot  0.339435 -0.0396631 0.368411
LeftToes  1.24767e-006 1.47042e-008 1.32732e-009
130
root  14.4466 40.0138 26.0632 7.64014 -26.2062 -4.41336
RightUpLeg  -6.7063 -9.01392 -9.08748
RightLeg  32.4414 -13.4071 -9.25208
RightFoot  -3.53836 -0.435356 6.03941
RightToes  -2.08645e-008 3.77894e-005 6.81332e-007
Spine  -2.39745 -0.349494 -4.5982
Spine1  5.17068 -1.24576 3.92466
HEad  -24.5331 22.75 -8.72884
LeftShoulder1  7.14048 -12.9633 -37.2825
LeftArm  6.46969 20.0346 -34.0577
LeftForeArm  116.926 -80.0927 -105.392
LeftHand  -0.621552 -2.36913 9.50725
RightShoulder  4.10162 6.87723 33.6231
RightArm  -2.00631 -25.1604 34.8057
RightForeArm  36.7928 65.5387 21.3123
RightHand  -0.99634 6.21788 -10.2609
LeftUpLeg  -13.4014 5.92982 4.74782
LeftLeg  5.34858 38.374 1.21264
LeftFoot  1.96293 -0.104648 0.798012
LeftToes  1.24767e-006 1.47042e-008 1.32732e-009
131
root  14.437 40.0193 25.0325 8.25146 -31.4092 -4.27643
RightUpLeg  -3.80447 -9.43422 -11.0934
RightLeg  30.7913 -12.2366 -7.99299
RightFoot  -0.694229 -0.687541 7.31738
RightToes  -2.08645e-008 3.77894e-005 6.81332e-007
Spine  -3.92254 0.282771 -2.32649
Spine1  5.50151 -0.208876 1.78464
HEad  -24.701 24.5543 -9.93369
LeftShoulder1  7.01474 -12.8374 -36.8613
LeftArm  6.00374 24.0882 -33.0623
LeftForeArm  130.699 -79.0518 -119.461
LeftHand  -0.601818 -2.18051 9.42777
RightShoulder  4.09955 6.88886 33.5592
RightArm  -0.127782 -25.4605 34.6793
RightForeArm  41.643 69.9278 27.0584
RightHand  -0.96354 5.78639 -10.2952
LeftUpLeg  -13.5936 7.103 5.73157
LeftLeg  2.82668 42.4824 -0.653841
LeftFoot  3.57747 -0.1897 1.28282
LeftToes  1.24767e-006 1.47042e-008 1.32732e-009
132
root  14.3373 39.9584 23.8751 8.79614 -35.8251 -4.05765
RightUpLeg  -1.8701 -10.3447 -12.7885
RightLeg  29.7336 -10.9348 -6.90805
RightFoot  3.11501 -0.927729 7.48345
RightToes  -2.08645e-008 3.77894e-005 6.81332e-007
Spine  -4.88112 0.729368 -1.13199
Spine1  5.44972 0.373465 1.0704
HEad  -25.1843 26.0829 -11.0745
LeftShoulder1  6.99961 -12.8219 -36.811
LeftArm  5.47663 27.2892 -31.5523
LeftForeArm  138.022 -78.0142 -127.34
LeftHand  -0.579864 -2.2414 9.02326
RightShoulder  4.11818 6.89863 33.7006
RightArm  1.81751 -25.8234 34.4583
RightForeArm  49.8073 73.8966 35.1196
RightHand  -0.905213 5.80561 -9.67907
LeftUpLeg  -14.2404 8.13082 6.85914
LeftLeg  1.08327 45.6523 -1.97778
LeftFoot  5.29168 -0.331806 2.05
LeftToes  1.24767e-006 1.47042e-008 1.32732e-009
133
root  14.196 39.8018 22.4966 9.21191 -39.7023 -3.89279
RightUpLeg  -0.908073 -9.99941 -13.4537
RightLeg  29.4546 -10.5401 -6.60306
RightFoot  5.43712 -1.20987 8.35988
RightToes  -2.08645e-008 3.77894e-005 6.81332e-007
Spine  -4.78107 0.971182 -0.497668
Spine1  5.12464 0.644841 0.866068
HEad  -26.6328 27.338 -12.4968
LeftShoulder1  7.04671 -12.8681 -36.9723
LeftArm  4.82797 29.0219 -29.6607
LeftForeArm  141.244 -77.3581 -131.057
LeftHand  -0.572978 -2.10885 9.06827
RightShoulder  4.14019 6.89079 33.941
RightArm  3.05548 -25.5489 35.0477
RightForeArm  57.9536 76.317 42.8831
RightHand  -0.802873 5.98473 -8.49814
LeftUpLeg  -15.4989 9.476 8.31196
LeftLeg  0.882267 47.4021 -2.30456
LeftFoot  6.77883 -0.442407 2.51637
LeftToes  1.24767e-006 1.47042e-008 1.32732e-009
134
root  14.0287 39.5214 20.8619 9.55518 -43.2333 -3.6669
RightUpLeg  -0.136608 -8.34395 -13.0857
RightLeg  27.9203 -10.471 -6.18341
RightFoot  2.24602 -1.56027 13.1846
RightToes  -2.08645e-008 3.77894e-005 6.81332e-007
Spine  -4.11608 1.04894 -0.671711
Spine1  5.079 0.690694 0.937503
HEad  -28.8478 28.362 -14.1938
LeftShoulder1  7.09308 -12.9138 -37.1298
LeftArm  3.92126 28.943 -28.0112
LeftForeArm  139.027 -77.6425 -129.296
LeftHand  -0.598775 -1.92644 9.68827
RightShoulder  4.20208 6.92267 34.4086
RightArm  4.12835 -24.1605 36.0513
RightForeArm  61.9251 77.1634 46.5824
RightHand  -0.750389 6.08971 -7.89909
LeftUpLeg  -17.3806 10.9853 9.94581
LeftLeg  1.89379 47.9349 -1.61515
LeftFoot  8.10856 -0.517499 2.72921
LeftToes  1.24767e-006 1.47042e-008 1.32732e-009
135
root  13.8472 39.0265 18.9235 9.68604 -46.1434 -3.00571
RightUpLeg  0.144198 -6.7877 -12.051
RightLeg  25.0296 -9.28346 -4.91615
RightFoot  -6.45388 -0.820046 18.0395
RightToes  -2.08645e-008 3.77894e-005 6.81332e-007
Spine  -2.20699 1.0512 -2.4745
Spine1  4.14815 0.524572 1.79754
HEad  -30.9828 29.0499 -15.8002
LeftShoulder1  7.12303 -12.948 -37.219
LeftArm  2.89131 27.2779 -26.591
LeftForeArm  131.537 -78.5644 -122.635
LeftHand  -0.635179 -1.83785 10.3836
RightShoulder  4.2851 6.98936 34.9371
RightArm  5.5871 -22.5692 36.9694
RightForeArm  63.976 77.5709 48.7034
RightHand  -0.750054 6.24914 -7.79566
LeftUpLeg  -20.4111 12.3767 11.4864
LeftLeg  5.01327 47.6592 0.951009
LeftFoot  8.91335 -0.509036 2.54457
LeftToes  1.24767e-006 1.47042e-008 1.32732e-009
